<svg version="1.1" id="Layer_1" xmlns="http://www.w3.org/2000/svg" xmlns:xlink="http://www.w3.org/1999/xlink" x="0px" y="0px"
	 width="100%" viewBox="0 0 730 833" enable-background="new 0 0 730 833" xml:space="preserve">
<path fill="#1B73BA" opacity="1.000000" stroke="none" 
	d="
M370.386230,833.780396 
	C368.933319,834.000000 367.866669,834.000000 366.399994,834.000000 
	C320.433655,825.671265 276.715607,810.366272 232.118179,798.389832 
	C179.353546,784.220032 126.881706,768.971619 74.229218,754.383118 
	C73.265961,754.116211 72.303574,753.848999 71.345436,753.563232 
	C59.796524,750.118225 59.635960,750.132324 58.746353,737.988708 
	C56.813396,711.602661 54.596649,685.238708 52.399025,658.875854 
	C50.215317,632.679932 47.996124,606.483765 45.856712,580.285217 
	C44.028679,557.899719 42.219753,535.508118 40.410614,513.120178 
	C38.266613,486.588287 36.055790,460.059387 33.831852,433.533142 
	C31.955385,411.151520 30.322964,388.744598 28.416452,366.366058 
	C26.524023,344.152832 24.733213,321.929688 22.868010,299.714569 
	C21.336912,281.478790 20.040678,263.217163 18.460333,244.985550 
	C16.535015,222.774155 14.887461,200.540604 12.923122,178.332138 
	C11.325419,160.268768 10.086186,142.171112 8.527900,124.103027 
	C6.926751,105.537949 5.635482,86.947815 3.893563,68.394226 
	C3.103766,59.981911 3.022144,51.523941 2.650665,43.085629 
	C2.258707,34.182098 2.071205,25.269701 1.500041,15.938990 
	C1.500000,14.083405 1.500011,12.662520 1.500007,10.826085 
	C1.478710,8.500040 1.549003,6.588748 1.225022,4.339466 
	C1.000000,3.555556 1.000000,3.111111 1.000000,2.333333 
	C2.386725,1.143492 3.926841,1.516970 5.395562,1.516865 
	C246.298523,1.499786 487.201477,1.498902 728.104431,1.500253 
	C728.771118,1.500257 729.437012,1.516208 730.551086,1.781040 
	C731.000000,3.388889 731.000000,4.777778 731.000000,6.583333 
	C729.978333,9.767079 730.732239,12.639199 730.499939,15.889175 
	C729.302551,37.683506 728.868469,59.070297 726.790100,80.397560 
	C724.740906,101.425499 723.140991,122.506073 721.317566,143.560303 
	C719.508667,164.447678 717.537048,185.323914 715.765259,206.213501 
	C713.979248,227.271210 712.138367,248.325623 710.302002,269.378357 
	C708.480225,290.264374 706.647766,311.151642 704.782898,332.034485 
	C703.273193,348.939331 701.818909,365.852142 700.359741,382.762695 
	C698.857910,400.169128 697.296753,417.572144 695.787231,434.977600 
	C694.320740,451.887177 692.824585,468.795380 691.366028,485.705963 
	C689.550049,506.760162 687.676147,527.810364 685.805847,548.859985 
	C684.274292,566.096924 682.813293,583.343079 681.356750,600.588013 
	C679.942322,617.334778 678.421875,634.073975 676.926208,650.814453 
	C675.386047,668.051758 673.945129,685.298401 672.413574,702.536743 
	C671.206177,716.126343 670.138916,729.727722 668.805603,743.307556 
	C668.286560,748.593750 665.640442,751.032166 660.682312,752.484436 
	C636.699951,759.508850 612.628540,766.220093 588.624084,773.165222 
	C525.893616,791.314941 463.113159,809.291504 400.370636,827.399353 
	C390.640228,830.207581 380.893921,832.730286 370.386230,833.780396 
z"/>
<path fill="#FEFEFF" opacity="1.000000" stroke="none" 
	d="
M370.468658,834.000000 
	C375.894684,831.180847 382.313904,829.999207 388.523407,828.208313 
	C479.256744,802.038818 570.008606,775.933411 660.791260,749.935974 
	C664.500854,748.873596 666.131470,747.504089 666.480286,743.368774 
	C670.807068,692.066895 675.369629,640.784973 679.862305,589.497009 
	C685.445435,525.760071 691.029663,462.023285 696.595581,398.284851 
	C702.088989,335.376709 707.551819,272.465851 713.043396,209.557541 
	C718.650879,145.321289 724.276978,81.086647 729.945374,16.424110 
	C730.163879,15.783476 730.331909,15.570033 730.749939,15.678295 
	C731.000000,287.066132 730.989441,558.132263 731.103210,829.198303 
	C731.104858,833.139648 730.472534,834.124329 726.305054,834.119141 
	C607.849304,833.971130 489.393280,834.000000 370.468658,834.000000 
z"/>
<path fill="#FEFEFF" opacity="1.000000" stroke="none" 
	d="
M1.723538,14.687355 
	C7.360319,80.771812 12.759826,146.526123 18.168915,212.279648 
	C23.659973,279.029602 29.177778,345.777405 34.651527,412.528748 
	C39.185768,467.822968 43.656357,523.122375 48.185658,578.417053 
	C52.728558,633.877686 57.346428,689.332275 61.780758,744.801575 
	C62.046261,748.122803 63.707363,748.845642 66.293953,749.568787 
	C142.799408,770.954285 219.294785,792.375977 295.785675,813.813660 
	C319.033752,820.329163 342.263977,826.908630 365.751160,833.729492 
	C245.877731,834.000000 125.755432,833.968872 5.633368,834.126770 
	C1.333684,834.132385 0.904296,832.950195 0.905753,829.136658 
	C1.009306,558.070251 1.000000,287.003784 1.000000,15.468657 
	C1.163489,14.785622 1.326979,14.571243 1.723538,14.687355 
z"/>
<path fill="#ABCCE6" opacity="1.000000" stroke="none" 
	d="
M731.000000,1.500000 
	C487.971954,2.001157 244.943939,2.002314 1.457950,2.001735 
	C1.217985,1.692326 0.494306,0.957172 1.500338,0.989468 
	C2.832299,1.032227 4.166667,1.000000 5.500000,1.000000 
	C247.333328,1.000000 489.166656,1.000000 731.000000,1.500000 
z"/>
<path fill="#A1C5E2" opacity="1.000000" stroke="none" 
	d="
M731.000000,15.550020 
	C730.832764,15.965380 730.665527,15.930758 730.247009,15.946527 
	C729.815796,13.207879 729.737122,10.431257 730.999512,7.409553 
	C731.000000,9.700014 731.000000,12.400027 731.000000,15.550020 
z"/>
<path fill="#6CA5D2" opacity="1.000000" stroke="none" 
	d="
M1.000000,4.428462 
	C1.815986,5.687242 2.126950,7.468299 1.917816,9.727577 
	C1.673279,10.315194 1.501520,10.507688 1.164880,10.350090 
	C1.000000,8.285642 1.000000,6.571283 1.000000,4.428462 
z"/>
<path fill="#C1D9EC" opacity="1.000000" stroke="none" 
	d="
M1.000000,10.416666 
	C1.000000,10.000000 1.416572,10.103545 1.630805,10.113123 
	C1.928748,11.483867 2.012457,12.845032 2.026387,14.612022 
	C1.956607,15.017846 1.478641,14.990852 1.239320,14.995426 
	C1.000000,13.611111 1.000000,12.222222 1.000000,10.416666 
z"/>
<path fill="#FEFFFF" opacity="1.000000" stroke="none" 
	d="
M368.352295,675.356445 
	C331.925476,665.043091 295.847290,655.000977 259.762756,644.981628 
	C233.459488,637.678223 207.166916,630.334595 180.816940,623.203430 
	C177.342911,622.263245 176.158615,620.784485 175.862137,617.191528 
	C172.191895,572.714294 168.380569,528.248413 164.430130,483.795197 
	C164.098602,480.064453 164.709290,478.915527 168.668350,478.940063 
	C195.650040,479.107452 222.633591,479.091370 249.615555,478.947662 
	C253.004745,478.929626 254.155151,479.930084 254.528030,483.267303 
	C256.802216,503.620331 259.366394,523.941040 261.612915,544.296936 
	C261.971436,547.545471 263.285065,548.700256 266.302704,549.451172 
	C295.861633,556.806824 325.393280,564.273438 354.899078,571.839600 
	C359.204407,572.943604 363.121460,571.612610 367.588745,570.806763 
	C370.000610,567.757935 373.185730,567.299438 376.283325,566.738281 
	C401.497681,562.170349 426.629639,557.163513 451.839813,552.573792 
	C453.805695,552.215942 455.748169,551.750488 457.704651,551.349731 
	C461.848022,550.500977 464.002472,547.857910 464.390045,543.732239 
	C466.333893,523.039978 468.484070,502.368317 470.562225,481.689453 
	C471.825745,469.116791 472.985931,456.534210 474.391327,443.975159 
	C475.591583,433.249115 474.813416,432.438385 464.213837,432.433472 
	C435.251251,432.420135 406.288574,432.461823 377.326141,432.391174 
	C374.395813,432.384033 371.277710,432.960815 368.340515,430.565552 
	C365.823883,430.226227 363.663361,430.085510 361.502838,430.085144 
	C296.170166,430.073547 230.837418,430.039795 165.504959,430.163300 
	C161.502884,430.170868 159.734375,429.432404 159.146027,425.030548 
	C155.725143,399.436188 152.057938,373.873016 148.204132,348.340057 
	C147.613708,344.428162 149.574234,343.532196 152.320328,342.342010 
	C220.177567,312.932159 288.016174,283.479279 355.856934,254.031479 
	C357.525208,253.307327 359.180817,252.553955 361.381622,251.574142 
	C359.283264,250.063232 357.291443,250.654602 355.514740,250.654663 
	C287.016174,250.657013 218.517395,250.643295 150.019409,250.864410 
	C144.939346,250.880814 143.377213,249.478302 142.747208,244.441742 
	C139.542206,218.819656 135.896637,193.252441 132.365555,167.671524 
	C131.418991,160.814056 131.354889,160.820969 138.062286,160.819504 
	C214.394302,160.802826 290.726318,160.786789 367.516510,160.675049 
	C370.767242,158.091736 374.218536,158.604187 377.499847,158.599640 
	C412.654510,158.551010 447.809265,158.572433 482.963989,158.573380 
	C516.619202,158.574295 550.274475,158.540833 583.929688,158.592529 
	C594.943787,158.609451 595.390625,159.068985 595.408752,170.243149 
	C595.447998,194.401520 595.299561,218.561340 595.509766,242.717514 
	C595.563843,248.928391 593.460144,252.218643 587.537720,254.617783 
	C542.767700,272.753723 498.083801,291.103333 453.370850,309.381134 
	C432.864685,317.763672 412.359344,326.148041 391.868256,334.583588 
	C448.550995,334.558044 505.264618,334.578308 561.978271,334.574219 
	C564.977051,334.574005 567.978210,334.507965 570.973816,334.667358 
	C577.032166,334.989624 578.688049,336.623901 578.182007,342.776031 
	C577.486328,351.232635 576.799744,359.691986 576.019653,368.142487 
	C574.413879,385.538818 572.965088,402.949097 571.443909,420.352936 
	C569.951538,437.426208 568.457825,454.499329 566.954834,471.571686 
	C565.422607,488.975067 563.923096,506.381409 562.417236,523.787109 
	C560.911316,541.192932 559.436890,558.601624 557.847961,575.999878 
	C556.697937,588.593384 555.833191,601.210876 554.458862,613.787781 
	C553.993896,618.042480 552.240723,620.266846 548.146667,621.546570 
	C490.596436,639.536011 432.984589,657.327332 375.421783,675.276184 
	C373.254242,675.952026 371.020081,677.082336 368.352295,675.356445 
z"/>
<path fill="#1D88C7" opacity="1.000000" stroke="none" 
	d="
M368.004852,675.539246 
	C426.987823,656.695862 485.950073,638.254089 544.985718,620.050354 
	C549.921387,618.528442 551.987000,616.612122 552.449707,611.104797 
	C558.836792,535.076294 565.533813,459.073853 572.167725,383.066162 
	C573.355347,369.457916 574.435303,355.836761 575.913147,342.259460 
	C576.396362,337.819458 575.304138,336.677246 570.773315,336.688965 
	C509.956696,336.846375 449.139587,336.794434 388.322601,336.794434 
	C386.574036,336.794434 384.825500,336.794403 382.258698,336.794403 
	C384.092010,334.611755 385.936401,334.337616 387.515106,333.691162 
	C454.244537,306.365326 520.968201,279.025085 587.759094,251.850311 
	C591.747314,250.227661 593.182922,248.354660 593.141235,243.936539 
	C592.896179,217.945847 592.923340,191.950912 593.118774,165.959366 
	C593.150330,161.761154 591.962219,160.722885 587.837891,160.729004 
	C514.857971,160.837204 441.877747,160.786789 368.436157,160.675064 
	C367.985352,133.917221 367.987885,107.254944 368.012665,80.592697 
	C368.018585,74.238289 368.226044,74.009666 374.373993,74.008995 
	C470.191681,73.998566 566.009399,73.998291 661.827087,74.010620 
	C667.674011,74.011368 668.407288,74.955009 667.892944,80.772263 
	C665.887817,103.448967 663.981812,126.134537 661.934143,148.807358 
	C659.722046,173.300980 657.300049,197.775879 655.142883,222.274200 
	C653.291748,243.298172 651.769592,264.351013 649.943176,285.377319 
	C648.490845,302.096771 646.705383,318.787231 645.238708,335.505554 
	C643.713684,352.888397 642.466736,370.295563 640.963989,387.680481 
	C639.475769,404.897156 637.761475,422.094238 636.254700,439.309387 
	C634.762207,456.361725 633.460754,473.430817 631.972656,490.483551 
	C630.470337,507.699036 628.818665,524.901428 627.276184,542.113464 
	C626.148743,554.694031 625.112793,567.282898 623.998962,579.864685 
	C622.782776,593.602234 621.495178,607.333557 620.291626,621.072205 
	C619.160217,633.985962 618.077942,646.904114 617.011841,659.823486 
	C616.273743,668.767700 615.581299,677.715820 614.906311,686.665039 
	C614.633972,690.275940 612.392517,691.605896 609.167664,692.526672 
	C571.848816,703.182800 534.562866,713.954041 497.265015,724.683716 
	C456.606354,736.380188 415.943054,748.060486 375.285156,759.759644 
	C368.588928,761.686523 368.017639,761.321655 368.013184,754.489563 
	C367.996185,728.327393 368.004486,702.165222 368.004852,675.539246 
z"/>
<path fill="#1E89C7" opacity="1.000000" stroke="none" 
	d="
M367.984894,430.751038 
	C379.136200,430.225647 390.287933,430.099701 401.439789,430.084167 
	C425.421173,430.050751 449.403015,430.143890 473.383545,430.000305 
	C477.041321,429.978424 478.295166,430.705688 477.879608,434.694031 
	C473.962524,472.284882 470.188263,509.890991 466.537384,547.508667 
	C466.171356,551.280273 464.879608,552.730896 461.052246,553.427917 
	C430.264893,559.033875 399.526672,564.909729 368.381653,570.680115 
	C367.988373,524.171570 367.986877,477.686066 367.984894,430.751038 
z"/>
</svg>