<?xml version="1.0" standalone="no"?>
<!DOCTYPE svg PUBLIC "-//W3C//DTD SVG 20010904//EN"
 "http://www.w3.org/TR/2001/REC-SVG-20010904/DTD/svg10.dtd">
<svg version="1.0" xmlns="http://www.w3.org/2000/svg"
 width="730.000000pt" height="833.000000pt" viewBox="0 0 730.000000 833.000000"
 preserveAspectRatio="xMidYMid meet">

<g transform="translate(0.000000,833.000000) scale(0.100000,-0.100000)"
fill="#000000" stroke="none">
<path d="M5 8293 c3 -16 26 -278 50 -583 39 -483 381 -4656 465 -5685 17 -203
45 -547 63 -764 26 -312 36 -396 47 -402 19 -11 3020 -852 3040 -852 15 0
2971 850 2975 855 1 2 41 455 89 1008 48 553 102 1181 121 1395 19 215 64 725
100 1135 35 410 92 1053 124 1430 33 377 94 1074 136 1550 41 476 78 882 81
903 l6 37 -3651 0 -3650 0 4 -27z m5923 -2004 c2 -352 0 -448 -10 -452 -7 -3
-474 -194 -1038 -424 -564 -231 -1032 -422 -1040 -426 -8 -3 421 -6 953 -6
l968 -1 -6 -52 c-3 -29 -35 -388 -70 -798 -36 -410 -72 -828 -81 -930 -8 -102
-32 -377 -53 -612 -20 -235 -39 -429 -42 -431 -10 -8 -1820 -567 -1836 -567
-10 0 -445 119 -968 263 l-950 263 -8 50 c-4 27 -23 238 -42 469 -20 231 -42
494 -50 585 -8 91 -17 202 -21 248 l-7 82 454 -2 454 -3 39 -340 c22 -187 41
-341 42 -343 1 -2 217 -57 480 -123 l477 -120 511 96 c281 53 522 100 536 104
l25 8 60 601 60 602 -1582 0 c-1254 0 -1583 3 -1590 13 -13 20 -129 847 -121
855 5 5 485 215 1067 468 l1058 459 -1089 3 c-860 2 -1088 5 -1088 15 0 6 -27
207 -59 446 -33 239 -58 438 -55 443 3 4 1043 7 2312 6 l2307 -3 3 -446z"/>
</g>
</svg>
