<?xml version="1.0" encoding="UTF-8" standalone="no"?>
<!-- Created with Inkscape (http://www.inkscape.org/) -->

<svg
   width="214.08121mm"
   height="214.08121mm"
   viewBox="0 0 214.08121 214.08121"
   version="1.1"
   id="svg19854"
   xml:space="preserve"
   inkscape:version="1.2 (dc2aedaf03, 2022-05-15)"
   sodipodi:docname="dessin.svg"
   xmlns:inkscape="http://www.inkscape.org/namespaces/inkscape"
   xmlns:sodipodi="http://sodipodi.sourceforge.net/DTD/sodipodi-0.dtd"
   xmlns="http://www.w3.org/2000/svg"
   xmlns:svg="http://www.w3.org/2000/svg"><sodipodi:namedview
     id="namedview19856"
     pagecolor="#ffffff"
     bordercolor="#000000"
     borderopacity="0.25"
     inkscape:showpageshadow="2"
     inkscape:pageopacity="0.0"
     inkscape:pagecheckerboard="0"
     inkscape:deskcolor="#d1d1d1"
     inkscape:document-units="mm"
     showgrid="false"
     inkscape:zoom="0.70199214"
     inkscape:cx="307.69575"
     inkscape:cy="471.51525"
     inkscape:window-width="1920"
     inkscape:window-height="986"
     inkscape:window-x="-11"
     inkscape:window-y="-11"
     inkscape:window-maximized="1"
     inkscape:current-layer="layer1" /><defs
     id="defs19851" /><g
     inkscape:label="Calque 1"
     inkscape:groupmode="layer"
     id="layer1"
     transform="translate(2.0406036,-41.459396)"><rect
       style="fill:#3366cc;fill-opacity:1;stroke-width:1.2;stroke-linecap:round;stroke-linejoin:round"
       id="rect20027"
       width="214.08121"
       height="214.08121"
       x="-2.0406036"
       y="41.459396"
       ry="107.0406" /><text
       xml:space="preserve"
       style="font-weight:bold;font-size:5.64444px;font-family:Montserrat;-inkscape-font-specification:'Montserrat Bold';white-space:pre;inline-size:0;fill:#3366cc;fill-opacity:1;stroke-width:1.2;stroke-linecap:round;stroke-linejoin:round"
       x="54.49493"
       y="165.46066"
       id="text25797"><tspan
         id="tspan25795"
         style="stroke-width:1.2"
         x="54.49493"
         y="165.46066">c</tspan></text><g
       aria-label="CSS"
       id="text25851"
       style="font-weight:bold;font-size:60.3826px;font-family:Montserrat;-inkscape-font-specification:'Montserrat Bold';fill:#ffffff;stroke-width:1.42636;stroke-linecap:round;stroke-linejoin:round"><path
         d="m 51.572658,177.86697 q -4.890991,0 -9.117773,-1.56995 -4.166399,-1.63033 -7.245912,-4.58907 -3.079512,-2.95875 -4.830608,-6.944 -1.690712,-3.98525 -1.690712,-8.75548 0,-4.77023 1.690712,-8.75548 1.751096,-3.98525 4.830608,-6.944 3.139895,-2.95874 7.306295,-4.52869 4.166399,-1.63033 9.117772,-1.63033 5.494817,0 9.902746,1.93224 4.468313,1.87186 7.487443,5.5552 l -6.279791,5.79673 q -2.173773,-2.47569 -4.830608,-3.68334 -2.656834,-1.26803 -5.796729,-1.26803 -2.958747,0 -5.434434,0.96612 -2.475686,0.96612 -4.287164,2.7776 -1.811478,1.81148 -2.837983,4.28716 -0.966121,2.47569 -0.966121,5.49482 0,3.01913 0.966121,5.49482 1.026505,2.47568 2.837983,4.28716 1.811478,1.81148 4.287164,2.7776 2.475687,0.96612 5.434434,0.96612 3.139895,0 5.796729,-1.20765 2.656835,-1.26803 4.830608,-3.8041 l 6.279791,5.79673 q -3.01913,3.68333 -7.487443,5.61558 -4.407929,1.93224 -9.963128,1.93224 z"
         id="path26311" /><path
         d="m 89.251406,177.86697 q -5.072139,0 -9.721599,-1.32842 -4.64946,-1.3888 -7.487442,-3.56257 l 3.321043,-7.36668 q 2.717217,1.93225 6.400555,3.20028 3.743721,1.20765 7.547825,1.20765 2.898365,0 4.64946,-0.54344 1.811478,-0.60383 2.656835,-1.63033 0.845356,-1.0265 0.845356,-2.35492 0,-1.69071 -1.328417,-2.65684 -1.328417,-1.0265 -3.502191,-1.63033 -2.173773,-0.6642 -4.830608,-1.20765 -2.596452,-0.60382 -5.253286,-1.44918 -2.596452,-0.84536 -4.770225,-2.17377 -2.173774,-1.32842 -3.562574,-3.50219 -1.328417,-2.17378 -1.328417,-5.5552 0,-3.62296 1.932243,-6.58171 1.992626,-3.01913 5.917495,-4.77022 3.985252,-1.81148 9.963129,-1.81148 3.985251,0 7.849738,0.96612 3.864484,0.90574 6.823234,2.7776 l -3.01913,7.42706 q -2.958748,-1.69071 -5.917495,-2.47569 -2.958747,-0.84535 -5.79673,-0.84535 -2.837982,0 -4.64946,0.66421 -1.811478,0.6642 -2.596451,1.75109 -0.784974,1.02651 -0.784974,2.41531 0,1.63033 1.328417,2.65683 1.328417,0.96612 3.502191,1.56995 2.173773,0.60382 4.770225,1.20765 2.656834,0.60383 5.253286,1.3888 2.656831,0.78497 4.830611,2.11339 2.17377,1.32842 3.50219,3.50219 1.3888,2.17377 1.3888,5.49482 0,3.56257 -1.99263,6.52132 -1.99262,2.95875 -5.977876,4.77022 -3.924869,1.81148 -9.963128,1.81148 z"
         id="path26313" /><path
         d="m 127.77553,177.86697 q -5.07214,0 -9.7216,-1.32842 -4.64946,-1.3888 -7.48744,-3.56257 l 3.32104,-7.36668 q 2.71722,1.93225 6.40056,3.20028 3.74372,1.20765 7.54782,1.20765 2.89837,0 4.64946,-0.54344 1.81148,-0.60383 2.65684,-1.63033 0.84535,-1.0265 0.84535,-2.35492 0,-1.69071 -1.32841,-2.65684 -1.32842,-1.0265 -3.50219,-1.63033 -2.17378,-0.6642 -4.83061,-1.20765 -2.59645,-0.60382 -5.25329,-1.44918 -2.59645,-0.84536 -4.77022,-2.17377 -2.17378,-1.32842 -3.56258,-3.50219 -1.32841,-2.17378 -1.32841,-5.5552 0,-3.62296 1.93224,-6.58171 1.99262,-3.01913 5.91749,-4.77022 3.98525,-1.81148 9.96313,-1.81148 3.98525,0 7.84974,0.96612 3.86449,0.90574 6.82323,2.7776 l -3.01913,7.42706 q -2.95874,-1.69071 -5.91749,-2.47569 -2.95875,-0.84535 -5.79673,-0.84535 -2.83798,0 -4.64946,0.66421 -1.81148,0.6642 -2.59645,1.75109 -0.78498,1.02651 -0.78498,2.41531 0,1.63033 1.32842,2.65683 1.32842,0.96612 3.50219,1.56995 2.17378,0.60382 4.77023,1.20765 2.65683,0.60383 5.25328,1.3888 2.65684,0.78497 4.83061,2.11339 2.17377,1.32842 3.50219,3.50219 1.3888,2.17377 1.3888,5.49482 0,3.56257 -1.99262,6.52132 -1.99263,2.95875 -5.97788,4.77022 -3.92487,1.81148 -9.96313,1.81148 z"
         id="path26315" /></g><path
       id="rect26059"
       style="fill:#ffffff;fill-opacity:1;stroke-width:0.720877;stroke-linecap:round;stroke-linejoin:round"
       d="m 161.05331,103.25801 c -1.7761,10.69253 -10.07893,19.12166 -20.70578,21.0839 10.68035,1.91539 19.0385,10.35806 20.83151,21.08142 1.7762,-10.69267 10.079,-19.12188 20.7061,-21.0839 -10.68072,-1.9152 -19.03887,-10.35773 -20.83183,-21.08142 z" /><path
       id="rect26059-7"
       style="fill:#ffffff;fill-opacity:1;stroke-width:0.338233;stroke-linecap:round;stroke-linejoin:round"
       d="m 158.13081,147.6544 c -0.83333,5.01689 -4.72899,8.97181 -9.71507,9.89249 5.01118,0.89869 8.93279,4.85995 9.77407,9.89131 0.83338,-5.01696 4.72902,-8.97191 9.71522,-9.89248 -5.01135,-0.89861 -8.93296,-4.85981 -9.77422,-9.89132 z" /><path
       id="rect26059-7-9"
       style="fill:#ffffff;fill-opacity:1;stroke-width:0.390425;stroke-linecap:round;stroke-linejoin:round"
       d="m 177.43821,133.06558 c -0.96193,5.79105 -5.45873,10.35625 -11.21421,11.419 5.78446,1.03737 10.31122,5.6099 11.2823,11.41764 0.96199,-5.79113 5.45877,-10.35637 11.21438,-11.41899 -5.78465,-1.03727 -10.3114,-5.60973 -11.28247,-11.41765 z" /></g></svg>
